<svg xmlns="http://www.w3.org/2000/svg" xmlns:xlink="http://www.w3.org/1999/xlink" id="Layer_1" x="0px" y="0px" viewBox="0 0 129 36" style="enable-background:new 0 0 129 36;" xml:space="preserve"><style type="text/css">	.st0{clip-path:url(#SVGID_00000168106819530242667430000012166064320780566678_);fill:#94BD24;}	.st1{clip-path:url(#SVGID_00000168106819530242667430000012166064320780566678_);fill:#3A4688;}	.st2{clip-path:url(#SVGID_00000168106819530242667430000012166064320780566678_);fill:#FFFFFF;}			.st3{clip-path:url(#SVGID_00000062193807059926606690000010965777967054163882_);fill:none;stroke:#94BD24;stroke-width:0.3994;stroke-linecap:round;stroke-linejoin:round;stroke-miterlimit:10;}	.st4{clip-path:url(#SVGID_00000062193807059926606690000010965777967054163882_);fill:#3A4688;}	.st5{clip-path:url(#SVGID_00000104683809035713825190000014341107046366892446_);fill:#CED738;}			.st6{clip-path:url(#SVGID_00000104683809035713825190000014341107046366892446_);fill:none;stroke:#CED738;stroke-width:0.3994;stroke-miterlimit:10;}	.st7{clip-path:url(#SVGID_00000104683809035713825190000014341107046366892446_);fill:#3A4688;}</style><g>	<defs>		<rect id="SVGID_1_" x="2.5" y="1" width="124.8" height="34.2"></rect>	</defs>	<clipPath id="SVGID_00000095326232982505764980000016210192905353133959_">		<use xlink:href="#SVGID_1_" style="overflow:visible;"></use>	</clipPath>	<path style="clip-path:url(#SVGID_00000095326232982505764980000016210192905353133959_);fill:#94BD24;" d="M44.9,9  c-0.1,0-0.3,0.1-0.4,0.2c-0.2,0.2-0.5,0.4-0.9,0.4c-0.1,0-0.2,0.1-0.2,0.2c-0.1,0.1-0.1,0.2-0.2,0.3c0,0.3,0.1,0.7,0.1,1  c0,4.6-3.7,8.3-8.3,8.3c-4.6,0-8.3-3.7-8.3-8.3c0-4.6,3.7-8.3,8.3-8.3c2.7,0,5.1,1.3,6.6,3.3c0.1,0,0.1,0,0.2,0  c0.1,0,0.1,0.1,0.2,0.1c0.1-0.1,0.3-0.1,0.4-0.1h0c0.1,0,0.1,0,0.2,0c0.4,0,0.9,0,1.4,0.2c0,0,0,0,0,0c-1.7-3.2-5.1-5.4-9-5.4  c-5.6,0-10.2,4.5-10.2,10.2c0,1.1,0.2,2.3,0.6,3.3c0.4,1,1,2,1.5,3c0,0,7.9,14.4,8,14.6c0,0,0.1-0.1,0.1-0.2  c0.9-1.6,1.8-3.2,2.6-4.8c1.3-2.3,2.5-4.6,3.8-6.9c0.6-1.2,1.3-2.4,2-3.5c0.9-1.7,1.7-3.5,1.7-5.5C45.1,10.4,45,9.6,44.9,9"></path>	<path style="clip-path:url(#SVGID_00000095326232982505764980000016210192905353133959_);fill:#3A4688;" d="M38.7,13.5h0.2  c-0.1-0.2-0.1-0.3-0.2-0.5V13.5z"></path>	<path style="clip-path:url(#SVGID_00000095326232982505764980000016210192905353133959_);fill:#FFFFFF;" d="M39,13.7h-0.4v-2l0.1,0  c0,0,0.1,0,0.1,0l-0.1,0l-0.1,0.1l0,0c-0.1,0.3-0.1,0.7,0.1,1.2v0.5h0.2c0,0,0,0,0,0.1L39,13.7z"></path>	<path style="clip-path:url(#SVGID_00000095326232982505764980000016210192905353133959_);fill:#3A4688;" d="M38.8,11.8  C38.8,11.8,38.8,11.8,38.8,11.8C38.8,11.8,38.8,11.8,38.8,11.8C38.8,11.8,38.8,11.8,38.8,11.8C38.8,11.8,38.8,11.8,38.8,11.8  C38.8,11.9,38.8,11.9,38.8,11.8C38.8,11.9,38.8,11.9,38.8,11.8c0,0.1,0,0.1,0,0.1c0,0,0,0,0,0c0,0,0,0,0,0c0,0,0,0,0,0c0,0,0,0,0,0  s0,0,0,0c0,0,0,0,0,0c0,0,0,0,0,0c0,0,0,0,0,0c0,0,0,0,0,0c0,0,0,0,0,0c0,0,0,0,0,0c0,0,0,0,0,0c0,0,0,0,0,0c0,0,0,0,0,0  c0,0,0,0,0,0c0,0,0,0,0,0c0,0,0,0,0,0c0,0,0,0,0,0c0,0,0,0,0,0c0,0,0,0,0,0c0,0,0,0,0,0c0,0,0,0,0,0c0,0,0,0,0,0c0,0,0,0,0,0  c0,0,0,0,0,0c0,0,0,0,0,0c0,0,0,0,0,0c0,0,0,0,0,0c0,0,0,0,0,0c0,0,0,0,0,0c0,0,0,0,0,0c0,0,0,0,0,0c0,0,0,0,0,0c0,0,0,0,0,0  c0,0,0,0,0,0c0,0,0,0,0,0c0,0,0,0,0,0c0,0,0,0,0,0c0,0,0,0,0,0c0,0,0,0,0,0c0,0,0,0,0,0c0,0,0,0,0,0c0,0,0,0,0,0c0,0,0,0,0,0h0.2  l-0.1-0.2L39.2,13l-0.1-0.2l-0.1-0.1l0-0.1l0-0.1l0-0.1l0-0.1l0-0.1l0-0.1l0-0.1l0-0.1l0-0.1l0-0.1l0-0.1  C38.9,11.8,38.8,11.8,38.8,11.8L38.7,13c0,0.2,0.1,0.3,0.2,0.5h0.2C38.9,12.9,38.7,12.2,38.8,11.8"></path>	<path style="clip-path:url(#SVGID_00000095326232982505764980000016210192905353133959_);fill:#3A4688;" d="M39.4,13.5h-0.2h-0.1  h-0.2c0,0,0,0,0,0.1l0,0.1h0.2l0.3,0L39.4,13.5z"></path>	<path style="clip-path:url(#SVGID_00000095326232982505764980000016210192905353133959_);fill:#3A4688;" d="M39,11.8l0-0.1h-0.2  l0,0l-0.1,0l-0.1,0.1l0,0c-0.1,0.3-0.1,0.7,0.1,1.2v-1.2C38.8,11.8,38.9,11.8,39,11.8"></path>	<path style="clip-path:url(#SVGID_00000095326232982505764980000016210192905353133959_);fill:#FFFFFF;" d="M39.2,13.4  C39.2,13.4,39.2,13.4,39.2,13.4C39.2,13.4,39.2,13.4,39.2,13.4C39.1,13.3,39.1,13.3,39.2,13.4c-0.1-0.1-0.1-0.1-0.1-0.1  c0,0,0,0,0,0c0,0,0,0,0,0c0,0,0,0,0,0c0,0,0,0,0,0c0,0,0,0,0,0c0,0,0,0,0,0c0,0,0,0,0,0c0,0,0,0,0,0c0,0,0,0,0,0c0,0,0,0,0,0  c0,0,0,0,0,0c0,0,0,0,0,0c0,0,0,0,0,0c0,0,0,0,0,0c0,0,0,0,0,0c0,0,0,0,0,0c0,0,0,0,0,0c0,0,0,0,0,0c0,0,0,0,0,0c0,0,0,0,0,0  c0,0,0,0,0,0c0,0,0,0,0,0c0,0,0,0,0,0c0,0,0,0,0,0c0,0,0,0,0,0c0,0,0,0,0,0c0,0,0,0,0,0c0,0,0,0,0,0c0,0,0,0,0,0c0,0,0,0,0,0  c0,0,0,0,0,0c0,0,0,0,0,0c0,0,0,0,0,0c0,0,0,0,0,0c0,0,0,0,0,0s0,0,0,0c0,0,0,0,0,0c0,0,0,0,0,0c0,0,0,0,0,0c0,0,0,0,0,0  c0,0,0,0,0,0c0,0,0,0,0,0c0,0,0,0,0,0c0,0,0,0,0,0c0,0,0,0,0,0C38.7,12.2,38.9,12.9,39.2,13.4L39.2,13.4  C39.2,13.5,39.2,13.5,39.2,13.4C39.2,13.4,39.2,13.4,39.2,13.4"></path></g><g>	<defs>		<path id="SVGID_00000011001724348956283500000005522732223978423709_" d="M26.6,11.1c0,4.6,3.7,8.3,8.3,8.3s8.3-3.7,8.3-8.3   s-3.7-8.3-8.3-8.3S26.6,6.5,26.6,11.1"></path>	</defs>	<clipPath id="SVGID_00000035524743460421514450000007769064733212743042_">		<use xlink:href="#SVGID_00000011001724348956283500000005522732223978423709_" style="overflow:visible;"></use>	</clipPath>			<path style="clip-path:url(#SVGID_00000035524743460421514450000007769064733212743042_);fill:none;stroke:#94BD24;stroke-width:0.3994;stroke-linecap:round;stroke-linejoin:round;stroke-miterlimit:10;" d="  M40.1,14.1c0.1,0.2,0,0.6-0.2,0.8"></path>	<path style="clip-path:url(#SVGID_00000035524743460421514450000007769064733212743042_);fill:#3A4688;" d="M37.6,20.7  c0.2,0.5,0.3,1,0.3,1.5c0.1,1.3,0.4,2.6,1.1,3.7c0.3,0.5,0.7,0.7,1.1,1c0.2,0.1,0.4,0.2,0.4,0.4h-2c0.1-0.2,0.2-0.4,0-0.6  c-0.2-0.2-0.3-0.4-0.3-0.6c-0.4-1.1-0.9-2.2-1.4-3.3c-0.1-0.2-0.2-0.4-0.4-0.6c-0.2-0.3-0.3-0.7-0.3-1.1c0-1.4-0.5-2.7-1.2-4  c-0.2-0.3-0.4-0.7-0.7-1c-0.8,1.2-1.5,2.4-2,3.8c-0.1,0.3-0.1,0.5-0.2,0.8c0,0.5-0.2,0.9-0.4,1.3c-0.5,0.8-0.8,1.7-1,2.6  c-0.1,0.4-0.2,0.9-0.3,1.3c0,0.4,0.1,0.7,0.4,0.9c0.1,0.1,0.3,0.2,0.3,0.4h-1.9c0-0.1,0.1-0.3,0.2-0.4c0.1-0.2,0.2-0.4,0.1-0.6  c-0.1-0.2,0-0.4,0.1-0.6c0.3-0.9,0.6-1.7,0.8-2.6c0.2-0.5,0.3-1,0.3-1.6c0.1-0.5,0.3-0.9,0.4-1.3c0.5-1.2,0.6-2.4,0.6-3.6  c0-0.1-0.1-0.2-0.2-0.2c-1.7-0.1-3.3-0.5-4.8-1.2c-0.2-0.1-0.2,0-0.2,0.1c-0.2,1-0.5,1.9-0.8,2.8c-0.3,0.9-0.5,1.9-0.6,2.8  c0,0.7,0.1,1.3,0.3,2c0.3,1.1,0.7,2.1,1.3,3.2c0.2,0.3,0.4,0.5,0.7,0.7c0.1,0.1,0.3,0.1,0.4,0.2c0.2,0.1,0.3,0.2,0.3,0.4h-1.7  c0-0.1,0-0.2-0.1-0.3c-0.3-0.2-0.3-0.5-0.5-0.7c-0.6-1.3-1.2-2.6-2-3.8c-0.3-0.4-0.4-0.8-0.2-1.2c0.3-1.1,0.4-2.2,0.4-3.4  c0-0.1,0-0.1,0-0.2c-0.5,0.5-1,0.9-1.5,1.4c-0.7,0.7-1.2,1.5-1.7,2.3c-0.3,0.6-0.4,1.2-0.6,1.8c-0.3,1-0.5,2-0.7,3  c-0.1,0.4,0.2,0.6,0.4,0.8c0.1,0.1,0.3,0.2,0.3,0.4h-1.8c0-0.1,0.1-0.2,0-0.3c-0.1-0.1-0.1-0.3,0-0.4c0.5-1.2,0.8-2.4,1-3.7  c0.1-0.6,0.2-1.2,0.1-1.8c0-0.3,0.1-0.5,0.2-0.6c0.4-0.5,0.8-0.9,1.2-1.5c0.8-1.3,1.3-2.7,1.4-4.3c0.1-0.8,0-1.1,0.2-1.9  c0-0.2,0.1-0.3,0.2-0.5c0.6-0.8,1.2-1.6,2.1-2.2c0.4-0.2,0.8-0.3,1.1-0.5c0.6-0.2,1-0.4,1.4-0.9c0.3-0.3,0.5-0.7,0.9-0.9  c0.8-0.4,1.7-0.2,2.3,0.4c0.8,0.7,1.6,0.7,2.6,0.8c0.8,0.1,1.4,0.4,1.9,1c0.4,0.4,0.8,0.9,1.2,1.3c0.8,0.7,1.8,0.4,2.8,0.1  c0.7-0.2,1.1-0.8,1.3-1.4c0.3-0.6,0.4-1.3,0.6-1.9c0.1-0.3,0.2-0.6,0.4-1c0.1-0.2,0.1-0.4-0.1-0.5c-0.1-0.1-0.2-0.2-0.1-0.3  c0.1-0.1,0.2-0.1,0.4-0.1c0.1,0,0.1,0,0.2,0.1c0.1,0.1,0.2,0.1,0.3,0c0.1-0.1,0.2-0.1,0.3-0.1c0.5,0,0.9,0,1.4,0.2  c0.2,0.1,0.4,0.1,0.6,0.1c0.2,0,0.5,0,0.7,0c0.4,0,0.7,0.3,0.9,0.6c0.1,0.1,0.2,0.3,0.3,0.4c0.1,0.1,0.1,0.2,0.1,0.3  c-0.1,0.3-0.5,0.5-0.8,0.4c-0.5-0.1-0.9,0-1.3,0.3c-0.2,0.2-0.5,0.3-0.7,0.4c-0.2,0-0.4,0.2-0.5,0.4c-0.3,0.7-0.6,1.3-1,1.9  c-0.5,0.9-1,1.8-1.8,2.4c-0.8,0.7-1.7,1-2.7,1.1c-0.2,0-0.4,0-0.7,0.1c-0.1,0-0.2,0.1-0.2,0.2c0,1.5,0.1,2.9,0.5,4.4  C37.3,20.1,37.5,20.4,37.6,20.7"></path>	<path style="clip-path:url(#SVGID_00000035524743460421514450000007769064733212743042_);fill:#3A4688;" d="M40.7,15.5  c-0.2-0.4-0.5-0.7-0.9-0.7c-0.4,0.1-0.5,0.5-0.6,0.9c0,0.1,0,0.2,0.2,0.2c0,0,0,0,0,0c0,0,0,0,0,0c0.1,0,0.3,0,0.4,0c0,0,0,0,0,0  c0,0.1,0,0.2,0,0.2c0,0,0,0,0,0c0,0,0,0,0,0c0,0,0,0,0,0c0,0,0-0.1,0-0.2c0,0.1,0.1,0.2,0.1,0.2c0,0,0,0,0,0c0,0,0,0,0,0  c0,0,0,0,0,0c0,0-0.1-0.1-0.1-0.2c0.2,0,0.4-0.1,0.6-0.1c0,0,0,0,0,0c0,0,0,0,0.1,0C40.8,15.7,40.8,15.6,40.7,15.5 M39.6,15.9  c0.1,0,0.2-0.1,0.3-0.1c0,0,0,0,0,0.1C39.8,15.9,39.7,15.9,39.6,15.9 M40,15.8c0.2,0,0.3,0,0.5,0C40.3,15.8,40.2,15.9,40,15.8  C40,15.9,40,15.8,40,15.8"></path>			<path style="clip-path:url(#SVGID_00000035524743460421514450000007769064733212743042_);fill:none;stroke:#94BD24;stroke-width:0.3994;stroke-linecap:round;stroke-linejoin:round;stroke-miterlimit:10;" d="  M39.9,14.9c0,0-1.6-1.5-1.4-3"></path></g><g>	<defs>		<rect id="SVGID_00000018202253781172749000000007619612250138040720_" x="2.5" y="1" width="124.8" height="34.2"></rect>	</defs>	<clipPath id="SVGID_00000034056930345821080960000016649494730302261941_">		<use xlink:href="#SVGID_00000018202253781172749000000007619612250138040720_" style="overflow:visible;"></use>	</clipPath>	<path style="clip-path:url(#SVGID_00000034056930345821080960000016649494730302261941_);fill:#CED738;" d="M39.7,32.9  c0,1.1-2.1,2-4.8,2s-4.8-0.9-4.8-2c0-1,1.6-1.8,3.8-2c0,0,0-0.1-0.1-0.1C31.7,31,30,31.8,30,32.9c0,1.2,2.2,2.1,4.9,2.1  c2.7,0,4.9-1,4.9-2.1c0-1-1.7-1.9-3.9-2.1l-0.1,0.1C38.1,31.1,39.7,31.9,39.7,32.9"></path>			<path style="clip-path:url(#SVGID_00000034056930345821080960000016649494730302261941_);fill:none;stroke:#CED738;stroke-width:0.3994;stroke-miterlimit:10;" d="  M39.7,32.9c0,1.1-2.1,2-4.8,2s-4.8-0.9-4.8-2c0-1,1.6-1.8,3.8-2c0,0,0-0.1-0.1-0.1C31.7,31,30,31.8,30,32.9c0,1.2,2.2,2.1,4.9,2.1  c2.7,0,4.9-1,4.9-2.1c0-1-1.7-1.9-3.9-2.1l-0.1,0.1C38.1,31.1,39.7,31.9,39.7,32.9z"></path>	<path style="clip-path:url(#SVGID_00000034056930345821080960000016649494730302261941_);fill:#CED738;" d="M38,32.4  c0,0.6-1.4,1.2-3.1,1.2c-1.7,0-3.1-0.5-3.1-1.2c0-0.5,1-1,2.3-1.1c0,0,0-0.1-0.1-0.1c-1.4,0.2-2.3,0.6-2.3,1.3  c0,0.7,1.4,1.3,3.2,1.3c1.8,0,3.2-0.6,3.2-1.3c0-0.6-1-1.1-2.4-1.3l-0.1,0.1C37,31.4,38,31.9,38,32.4"></path>			<path style="clip-path:url(#SVGID_00000034056930345821080960000016649494730302261941_);fill:none;stroke:#CED738;stroke-width:0.3994;stroke-miterlimit:10;" d="  M38,32.4c0,0.6-1.4,1.2-3.1,1.2c-1.7,0-3.1-0.5-3.1-1.2c0-0.5,1-1,2.3-1.1c0,0,0-0.1-0.1-0.1c-1.4,0.2-2.3,0.6-2.3,1.3  c0,0.7,1.4,1.3,3.2,1.3c1.8,0,3.2-0.6,3.2-1.3c0-0.6-1-1.1-2.4-1.3l-0.1,0.1C37,31.4,38,31.9,38,32.4z"></path>	<path style="clip-path:url(#SVGID_00000034056930345821080960000016649494730302261941_);fill:#CED738;" d="M35.3,32  C35.3,32.1,35.3,32.1,35.3,32c-0.1,0.1-0.1,0.2-0.2,0.3c0,0-0.1,0-0.1,0c-0.1,0-0.2-0.1-0.3-0.2c0,0-0.1-0.2-0.3-0.5  c-0.4,0.1-0.7,0.3-0.7,0.5c0,0.3,0.6,0.5,1.3,0.5s1.3-0.2,1.3-0.5c0-0.2-0.3-0.4-0.8-0.5L35.3,32C35.3,32,35.3,32,35.3,32"></path>			<path style="clip-path:url(#SVGID_00000034056930345821080960000016649494730302261941_);fill:none;stroke:#CED738;stroke-width:0.3994;stroke-miterlimit:10;" d="  M35.3,32C35.3,32.1,35.3,32.1,35.3,32c-0.1,0.1-0.1,0.2-0.2,0.3c0,0-0.1,0-0.1,0c-0.1,0-0.2-0.1-0.3-0.2c0,0-0.1-0.2-0.3-0.5  c-0.4,0.1-0.7,0.3-0.7,0.5c0,0.3,0.6,0.5,1.3,0.5s1.3-0.2,1.3-0.5c0-0.2-0.3-0.4-0.8-0.5L35.3,32C35.3,32,35.3,32,35.3,32z"></path>	<path style="clip-path:url(#SVGID_00000034056930345821080960000016649494730302261941_);fill:#3A4688;" d="M39,12L39,12l0,0.1  l0,0.1l0,0.1l0,0.1l0,0.1l0,0.1l0,0.1l0,0.1l0.1,0.1l0.1,0.2l0.1,0.2l0.1,0.2h1.5c0.5-0.6,0.9-1.2,1.2-1.9c0.3-0.6,0.6-1.3,1-1.9  c0.1-0.2,0.2-0.3,0.5-0.4c0.3,0,0.5-0.2,0.7-0.4c0.3-0.2,0.6-0.3,0.9-0.3c0.1,0,0.2,0,0.4,0.1c0.1,0,0.1,0,0.2,0  c0.3,0,0.5-0.2,0.6-0.5c0-0.1,0-0.2-0.1-0.3c-0.1-0.1-0.2-0.3-0.3-0.4c-0.2-0.3-0.5-0.6-0.9-0.6c-0.2,0-0.5,0-0.7,0h0h0  c-0.2,0-0.4,0-0.6-0.1c-0.4-0.2-0.9-0.2-1.4-0.2c0,0,0,0,0,0c-0.1,0-0.2,0-0.2,0.1c0,0-0.1,0.1-0.1,0.1c-0.1,0-0.1,0-0.2-0.1  c-0.1,0-0.1-0.1-0.2-0.1c-0.1,0-0.1,0-0.2,0c-0.1,0-0.1,0-0.2,0.1c-0.1,0.1,0,0.2,0.1,0.3c0.1,0.2,0.1,0.3,0.1,0.5  c-0.1,0.3-0.2,0.6-0.4,1c-0.2,0.6-0.4,1.3-0.6,1.9c-0.3,0.6-0.6,1.2-1.3,1.4c0,0-0.1,0-0.1,0L39,12L39,12z"></path>	<path style="clip-path:url(#SVGID_00000034056930345821080960000016649494730302261941_);fill:#3A4688;" d="M17.8,1.1  c-3.3,0-6,3.1-6,7c0,1.9,0.6,3.4,1.7,4.5c0.9,0.8,2,1.3,3.3,1.3c-1.3-0.8-2-2.9-2-5.8c0-3.2,1.2-6.5,3.1-6.5c1.7,0,3.1,2.9,3.1,6.5  c0.1,3.2-0.5,5.7-1.8,6.9c-0.6,0.6-1.4,1-2.2,1c-2.8,0-6-3.5-8.6-9.3l0-0.1l1.1-1.9c0.7-1.2,1.8-2.6,3.2-3.4H9.3  c0.5,0.7,0.3,2-0.6,3.6L6,9.7V4.4c0-0.9,0-2.2,0.7-3.1H2.5c0.6,0.8,0.7,2,0.7,3.1v7.4c0,0.9,0,2.1-0.7,3.1h4.1C6,14,6,12.7,6,11.8  v-1l0.8-1.5L7,9.5c2.3,4.3,5.7,6.8,9.3,6.8c4.3,0,7.6-3.5,7.6-8.3C23.9,4.3,21.1,1.1,17.8,1.1"></path>	<path style="clip-path:url(#SVGID_00000034056930345821080960000016649494730302261941_);fill:#3A4688;" d="M57.1,11.9l-1.5-3.1  l0.2-0.1c2-0.5,3.1-1.7,3.1-3.5c-0.1-2.6-2.3-3.9-6.9-3.8l-4.6,0c0.6,0.8,0.7,2,0.7,3.1v7.4c0,0.9,0,2.1-0.7,3.1h4.1  c-0.7-0.9-0.7-2.2-0.7-3.1V9H52c0.3,0,0.5,0,0.7,0l0.1,0l1.3,2.7c0.5,0.9,1.1,2.2,0.8,3.1h4.2C58.1,14,57.5,12.9,57.1,11.9 M51,8.6  h-0.2V1.8H51c3.1,0,4.6,1.1,4.6,3.4C55.6,7.5,54.1,8.6,51,8.6"></path>	<path style="clip-path:url(#SVGID_00000034056930345821080960000016649494730302261941_);fill:#3A4688;" d="M73.4,4.4  c0-0.9,0-2.2,0.7-3.1h-3.3l-3,9.8l-2.5-6.6c-0.4-1-0.8-2.2-0.5-3.1h-4.1c0.4,0.4,0.8,0.9,1.1,1.5l0,0v8.5c0,1.2-0.4,2.7-1.3,3.5  h3.3c-1-0.8-1.4-2.3-1.4-3.5V4.3l4,10.6h0.8l3.3-10.8v7.7c0,1,0,2.2-0.7,3.1h4.2c-0.7-0.9-0.7-2.1-0.7-3.1V4.4z"></path>	<path style="clip-path:url(#SVGID_00000034056930345821080960000016649494730302261941_);fill:#3A4688;" d="M78.2,11.6l0.2-0.6h4.9  l0.2,0.9c0.2,1,0.5,2.1,0.1,3h4.1c-0.8-0.8-1.2-2-1.4-3L83.6,1.4h-3.3l-2.6,10.1c-0.3,1.2-1,2.6-2.2,3.4h3.3  C77.9,14.1,77.9,12.7,78.2,11.6 M80.8,1.5l2.3,8.9h-4.6L80.8,1.5z"></path>	<path style="clip-path:url(#SVGID_00000034056930345821080960000016649494730302261941_);fill:#3A4688;" d="M98.5,1.3h-11l-0.6,3  C87.6,3.2,88.9,2,91.4,2l0.2,0v9.8c0,1,0,2.2-0.7,3.1h4.2c-0.7-0.9-0.7-2.1-0.7-3.1V2l0.2,0C97,2,98.3,3.2,99.1,4.4L98.5,1.3z"></path>	<path style="clip-path:url(#SVGID_00000034056930345821080960000016649494730302261941_);fill:#3A4688;" d="M104.6,1.3h-4.1  c0.6,0.8,0.7,2,0.7,3.1v7.4c0,0.9,0,2.1-0.7,3.1h4.1c-0.7-0.9-0.7-2.2-0.7-3.1V4.4C103.9,3.3,103.9,2.2,104.6,1.3"></path>	<path style="clip-path:url(#SVGID_00000034056930345821080960000016649494730302261941_);fill:#3A4688;" d="M113.5,1.9  c0.9,0.5,1.8,1.8,2.3,2.9l-0.4-3.4c-0.2,0.1-0.5,0.2-0.8,0.2c-0.4,0-0.8-0.1-1.2-0.2c-0.7-0.2-1.4-0.3-2-0.3c-1.8,0-3,0.9-3.7,1.7  c-1.9,2.2-2.3,6.1-1,9.1c0.9,2.1,2.6,3.2,4.6,3.2c0.7,0,1.4-0.1,2-0.3c0.5-0.2,0.9-0.3,1.2-0.3c0.3,0,0.5,0.1,0.8,0.2l0.4-3.4  c-0.6,1.2-1.4,2.4-2.3,3c-1,0.5-2,0.4-2.7-0.2c-2-1.8-2.3-7.1-1.1-10.1c0.6-1.5,1.5-2.3,2.6-2.3C112.7,1.6,113.1,1.7,113.5,1.9"></path>	<path style="clip-path:url(#SVGID_00000034056930345821080960000016649494730302261941_);fill:#3A4688;" d="M123.3,6.9  c-1.7-0.8-3.3-1.5-3.3-3.4c0.1-1.3,1-2,2.5-2.1c0,0,0,0,0.1,0c1.9,0,3.4,1.7,4.2,3.7l-0.2-3.6c-0.2,0.1-0.5,0.2-0.9,0.2  c-0.4,0-0.9-0.1-1.3-0.2c-0.7-0.2-1.5-0.4-2.4-0.4c-1.2,0-3.9,0.3-4.3,2.9c-0.3,3.3,2,4.4,4.1,5.3c1.7,0.8,3.2,1.5,3.1,3.3  c-0.1,1.2-1.2,2.1-2.6,2.1c0,0-0.1,0-0.1,0c-2.1,0-3.6-2-4.3-3.8l0.1,3.7c0.3-0.1,0.6-0.2,1-0.2c0.5,0,1,0.1,1.4,0.2  c0.7,0.2,1.5,0.4,2.4,0.4c2.1,0,4.4-0.9,4.5-3.4C127.5,8.8,125.4,7.8,123.3,6.9"></path></g></svg>